<?xml version="1.0" encoding="UTF-8" standalone="no"?>
<!-- Created with Inkscape (http://www.inkscape.org/) -->

<svg
   xmlns:dc="http://purl.org/dc/elements/1.1/"
   xmlns:cc="http://creativecommons.org/ns#"
   xmlns:rdf="http://www.w3.org/1999/02/22-rdf-syntax-ns#"
   xmlns:svg="http://www.w3.org/2000/svg"
   xmlns="http://www.w3.org/2000/svg"
   xmlns:xlink="http://www.w3.org/1999/xlink"
   xmlns:sodipodi="http://sodipodi.sourceforge.net/DTD/sodipodi-0.dtd"
   xmlns:inkscape="http://www.inkscape.org/namespaces/inkscape"
   width="256"
   height="256"
   id="svg2"
   version="1.1"
   inkscape:version="0.48.5 r10040"
   sodipodi:docname="src.svg">
  <defs
     id="defs4">
    <linearGradient
       id="linearGradient3826">
      <stop
         style="stop-color:#39ffce;stop-opacity:0;"
         offset="0"
         id="stop3828" />
      <stop
         style="stop-color:#80eeff;stop-opacity:1;"
         offset="1"
         id="stop3830" />
    </linearGradient>
    <radialGradient
       inkscape:collect="always"
       xlink:href="#linearGradient3826"
       id="radialGradient3844"
       cx="106.74979"
       cy="925.89514"
       fx="106.74979"
       fy="925.89514"
       r="72.218773"
       gradientTransform="matrix(1.7477691,0,0,1.5477519,-58.962329,-510.61477)"
       gradientUnits="userSpaceOnUse" />
    <radialGradient
       inkscape:collect="always"
       xlink:href="#linearGradient3826"
       id="radialGradient3877"
       cx="159.0312"
       cy="173.7989"
       fx="159.0312"
       fy="173.7989"
       r="20.719414"
       gradientTransform="matrix(1,0,0,2.5724474,0,-273.28965)"
       gradientUnits="userSpaceOnUse" />
    <filter
       inkscape:collect="always"
       id="filter3899"
       x="-0.17536555"
       width="1.3507311"
       y="-0.067440302"
       height="1.1348806">
      <feGaussianBlur
         inkscape:collect="always"
         stdDeviation="2.9751789"
         id="feGaussianBlur3901" />
    </filter>
  </defs>
  <sodipodi:namedview
     id="base"
     pagecolor="#ffffff"
     bordercolor="#666666"
     borderopacity="1.0"
     inkscape:pageopacity="0.0"
     inkscape:pageshadow="2"
     inkscape:zoom="1.4"
     inkscape:cx="112.81537"
     inkscape:cy="119.69856"
     inkscape:document-units="px"
     inkscape:current-layer="layer1"
     showgrid="false"
     inkscape:window-width="1088"
     inkscape:window-height="637"
     inkscape:window-x="191"
     inkscape:window-y="126"
     inkscape:window-maximized="0" />
  <metadata
     id="metadata7">
    <rdf:RDF>
      <cc:Work
         rdf:about="">
        <dc:format>image/svg+xml</dc:format>
        <dc:type
           rdf:resource="http://purl.org/dc/dcmitype/StillImage" />
        <dc:title></dc:title>
      </cc:Work>
    </rdf:RDF>
  </metadata>
  <g
     inkscape:label="Layer 1"
     inkscape:groupmode="layer"
     id="layer1"
     transform="translate(0,-796.36218)">
    <path
       style="fill:url(#radialGradient3844);fill-opacity:1;stroke:#000000;stroke-width:1.74776924;stroke-opacity:1"
       d="m 181.73785,811.54135 c -0.36725,0.0117 -0.78128,0.0964 -1.25621,0.16377 -3.6393,0.51716 -3.95163,1.55603 -4.42403,14.09157 l -0.49157,13.5452 -161.177088,0 -12.1251486,0 0,7.15484 c 15.9397776,-0.14977 37.1497786,-0.16376 67.1798796,-0.16376 l 106.231607,0 0,14.85604 0,14.85603 -35.82928,0 -35.82927,0 0,-6.11718 c 0,-5.82619 -0.2913,-6.1172 -6.11719,-6.1172 -5.825891,0 -6.117192,0.29101 -6.117192,6.1172 l 0,6.11718 -63.793575,0 -25.7249796,0 0,7.04561 c 7.5211763,-0.0236 14.6366746,-0.0545 25.6157436,-0.0545 l 63.68434,0 0.546177,14.14591 c 0.313549,7.77461 0.236685,14.45981 -0.163766,14.85603 -0.400517,0.39623 -10.035095,0.71013 -21.410173,0.71013 l -20.70014,0 0,-6.00814 c 0,-4.31245 -0.886574,-6.24966 -3.222451,-6.99107 -5.753586,-1.82589 -9.011935,0.72776 -9.011935,7.1005 l 0,5.89871 -30.149018,-0.16394 c -1.922564,-0.0104 -3.4596921,-0.0367 -5.1886902,-0.0546 l 0,7.20955 34.8461492,0 1.146974,9.1758 c 0.606178,5.0465 1.083616,11.3383 1.092355,13.98215 l 0,4.80636 -37.0854782,0 0,3.71402 c 6.5641318,0.008 13.1264632,0.0735 18.2423412,0.21846 10.767796,0.30412 2.479106,0.59494 -18.2423412,0.60072 l 0,4.20564 37.0854782,0 0,13.98217 0,13.98216 -31.896788,-0.10954 c -1.9296949,-0.007 -3.4438223,0.0117 -5.1886902,0 l 0,7.26425 c 30.4912852,0.25344 37.5312302,0.88893 38.8332482,2.4579 1.19668,1.44173 3.16292,2.62166 4.369422,2.62166 1.206503,0 3.172743,-1.17993 4.369424,-2.62166 1.548086,-1.86541 5.648037,-2.62166 14.200624,-2.62166 l 12.015913,0 0,17.58674 c 0,17.4445 1.663528,24.3597 5.789485,24.3597 2.22811,0 12.710863,-8.3821 24.468773,-19.6079 6.28447,-5.9999 6.74885,-7.1635 6.1718,-14.41905 l -0.60079,-7.91949 17.42308,0 c 16.30407,0 17.1861,0.17967 13.5452,2.73072 -9.74788,6.82782 -12.25449,23.38022 -4.6425,30.53142 9.49366,8.9187 33.06732,3.0136 42.87495,-10.7596 2.22863,-3.1299 4.28276,-9.1017 4.75176,-13.98216 l 0.81927,-8.52038 66.30599,0 0,-6.99109 -69.03689,0 1.14697,-10.70508 c 0.61759,-5.90885 1.09236,-12.201 1.09236,-13.98215 0,-2.72617 1.42335,-3.27707 8.84809,-3.27707 7.38514,0 9.48749,0.7505 12.83517,4.64244 4.37335,5.08424 8.91939,4.30335 7.15493,-1.25631 -0.7816,-2.46313 3.86136,-3.14983 37.95937,-3.33159 l 0,-4.47867 c -11.50824,-0.0921 -13.55778,-0.22301 -0.65542,-0.38224 0.18802,-10e-4 0.46527,10e-4 0.65542,0 l 0,-4.04187 c -24.98009,-0.1713 -42.32879,-0.5018 -42.32879,-0.8739 0,-0.54374 0.86192,-2.50996 1.85702,-4.36942 2.321,-4.33639 6.27827,-4.27836 13.65443,0.21847 12.06595,7.35636 14.21723,0.20117 3.71401,-12.34344 -3.8451,-4.59279 -6.99107,-8.80719 -6.99107,-9.39425 0,-0.34554 12.14544,-0.62116 30.0944,-0.81937 l 0,-7.26407 -10.10429,0 c -24.80235,0 -24.80593,0.0305 -11.36051,-12.99922 4.99477,-4.83991 7.10032,-8.37233 7.10032,-11.79744 l 0,-4.91541 14.36448,0 0,-6.88203 -20.48167,0 -9.72197,-10.81415 c -7.01082,-7.77372 -10.582,-10.52349 -12.67133,-9.72214 -4.10231,1.5744 -3.65728,5.3265 1.42006,11.3605 2.40319,2.85603 4.36943,6.09221 4.36943,7.15502 0,2.1106 -28.19987,2.82301 -30.25826,0.76466 -0.64085,-0.64092 -1.20158,-7.32614 -1.20158,-14.85604 l 0,-13.70899 68.54532,0 0,-6.99107 -68.54532,0 0,-14.09156 c 0,-11.9212 -0.10558,-13.79636 -2.67628,-13.70899 z m -83.674443,56.2018 c 0.561139,0.56067 0.919409,11.73958 0.819266,24.7963 -0.17642,22.9807 -0.04386,23.70429 3.495537,23.70429 3.28409,0 3.3884,0.27091 0.98312,2.67619 -1.47281,1.47285 -3.1053,5.20869 -3.604771,8.3019 -0.499469,3.0932 -1.215249,7.59195 -1.583923,9.99513 -0.368654,2.4032 -0.742973,-12.45668 -0.873881,-33.04383 -0.130909,-20.58732 0.20351,-36.99137 0.764652,-36.42998 z m 123.927763,5.07937 4.36942,3.93247 c 2.40318,2.15274 5.49065,5.7832 6.82721,8.08344 2.28915,3.9398 2.02598,4.55136 -4.69711,10.37737 -8.88448,7.69911 -12.71656,14.84853 -11.41512,21.35548 0.54515,2.72529 0.59105,4.91578 0.0547,4.91578 -1.8376,0 -13.46351,-15.19757 -13.49059,-17.64163 -0.0158,-1.343 3.14373,-5.21081 7.04567,-8.57493 5.14755,-4.43864 7.70066,-8.33178 9.23042,-14.25531 l 2.07547,-8.19267 z m -117.97443,10.21361 35.82927,0 35.82928,0 0,13.76368 0,13.70898 -13.32675,1.14706 c -17.68127,1.49435 -37.01182,1.15981 -43.25728,-0.71012 -2.76994,-0.82932 -7.2923,-1.04289 -10.04968,-0.49164 l -5.02484,0.98329 0,-14.20064 0,-14.20061 z m 80.39739,0 14.80141,0 c 16.88153,0 17.54482,1.15002 6.06259,10.3772 -7.02864,5.6486 -8.30895,9.81232 -5.02484,15.94839 1.66042,3.10263 1.16296,3.38649 -5.8441,3.38649 -4.19933,0 -8.15263,-0.50633 -8.79347,-1.14707 -0.64086,-0.64092 -1.20159,-7.32612 -1.20159,-14.85605 l 0,-13.70896 z M 44.537972,904.00937 c 1.008428,0 1.239658,9.53058 0.600796,24.46875 -0.950053,22.21381 -0.768076,24.46878 1.911622,24.46878 2.376668,0 2.603774,0.66449 1.146974,3.38613 -0.995094,1.85945 -1.857006,9.33097 -1.857006,16.6038 0,13.50675 1.635477,16.1321 6.772605,11.03297 1.763011,-1.75022 2.009622,-1.66318 1.201592,0.43693 -0.554793,1.44174 -2.88742,3.48768 -5.134072,4.53319 l -4.041715,1.91155 -1.146973,-20.97324 c -1.665467,-30.97396 -1.366023,-65.86886 0.546177,-65.86886 z m 66.469848,10.86884 c 0.73366,-10e-4 2.09886,0.12658 4.15095,0.38223 3.72388,0.46439 7.05588,1.10267 7.37341,1.42023 0.31751,0.31723 1.04985,3.67348 1.63853,7.48255 0.93871,6.07351 0.3942,7.68879 -4.42405,13.05374 -3.51493,3.91345 -5.06335,4.85794 -4.26019,2.62166 4.06726,-11.32501 2.74312,-21.06376 -3.22244,-23.70429 -1.96005,-0.86724 -2.47897,-1.25175 -1.25621,-1.25612 z m 53.47082,1.36553 c 1.1954,-0.0175 2.56049,0 4.09632,0 l 12.34362,0 0,11.36051 c 0,6.70303 -0.72936,11.36049 -1.80237,11.36049 -3.61802,0 -12.17976,7.7615 -12.17978,11.03262 0,2.85533 1.03425,3.24438 6.99108,2.67635 l 6.99107,-0.65541 0,11.36051 c -0.0384,11.04118 -0.23973,11.51989 -5.571,14.14592 -6.01042,2.96089 -9.8639,7.72286 -7.86497,9.72213 0.69527,0.6949 4.0201,1.34859 7.37341,1.41989 6.08281,0.13036 6.05733,0.13472 6.06256,8.35661 0.002,6.75884 -0.99357,9.37714 -5.51639,14.52834 -3.03313,3.4544 -8.46766,7.8014 -12.12515,9.6672 -9.14188,4.6639 -16.47919,4.3852 -21.73788,-0.8739 -2.35948,-2.3593 -4.3148,-5.5967 -4.3148,-7.2095 0,-4.2789 6.40114,-13.91921 11.41512,-17.20449 6.27529,-4.11181 5.6042,-8.02873 -1.36546,-8.02873 -4.60125,0 -6.10134,-0.97176 -7.91957,-5.07954 -3.14029,-7.09438 -1.04598,-13.4047 6.88185,-20.864 8.38114,-7.88577 8.57674,-10.75963 0.81926,-10.75963 -4.84258,0 -6.28442,-0.89082 -7.9742,-4.97029 -3.04055,-7.34064 -0.77602,-12.99939 8.68424,-21.95635 7.35787,-6.96697 8.34518,-7.90726 16.71304,-8.02873 z m -114.642744,3.49553 21.847116,0 21.847115,0 0,13.98216 c 0,12.81691 -0.2913,13.98215 -3.495538,13.98215 -2.726799,0 -3.495539,-1.16507 -3.495539,-5.29801 0,-9.4521 -10.710189,-8.95627 -11.852059,0.54618 -0.525153,4.3703 -0.861057,4.49368 -12.671327,4.20548 l -12.179768,-0.32754 0,-13.54519 0,-13.54523 z m 83.455984,0 c 0.62677,-0.0175 1.3307,0 2.1301,0 l 7.20954,0 -4.42404,6.55414 c -3.03344,4.46397 -4.47866,8.87692 -4.47866,13.98216 l 0,7.42801 -8.84808,0 -8.9027,0 5.29793,-4.42412 c 5.88194,-4.94933 9.83747,-14.63564 8.13805,-19.9901 -0.87242,-2.74855 -0.50946,-3.42896 3.87786,-3.55009 z m 63.95742,0 c 8.3459,0 11.7878,0.75434 13.87293,3.05861 2.60475,2.87804 2.3327,3.02555 -4.80636,2.45772 -9.62504,-0.76554 -12.52475,3.23459 -9.72197,13.32673 0.99722,3.5908 1.79715,7.0893 1.80238,7.81043 0.006,0.7206 -3.22752,1.31082 -7.20954,1.31082 l -7.26417,0 1.14696,-10.70509 c 0.61759,-5.90885 1.09237,-12.20099 1.09237,-13.98215 0,-2.81355 1.45556,-3.27707 11.0874,-3.27707 z m -87.98925,1.74779 c 4.61707,0 5.62037,6.93689 2.02085,13.87273 -4.66214,8.98406 -7.26416,8.84896 -7.26416,-0.43693 0,-9.99463 1.34402,-13.4358 5.24331,-13.4358 z m 94.81648,8.02872 c 2.10455,-0.1369 5.27111,0.35968 9.66735,1.25612 13.75701,2.80657 17.2877,5.82303 5.89872,5.02485 -5.43339,-0.38068 -9.00095,0.22126 -10.26814,1.74775 -1.0671,1.28602 -2.19357,5.05037 -2.51243,8.41133 -0.57243,6.03294 -0.61272,5.9812 -3.9871,-3.93249 -3.02034,-8.87396 -3.42841,-12.20661 1.2016,-12.50756 z M 81.295742,940.71251 c 1.040657,0 1.70696,5.83354 1.583916,14.41909 -0.336636,23.47272 -2.876599,27.74094 -3.113214,5.24331 -0.127066,-12.08111 0.455433,-19.6624 1.529298,-19.6624 z m 18.788518,4.47848 c 0.15206,0.0602 0.23076,0.45827 0.2731,1.20177 0.20069,3.52315 3.76416,4.04644 6.82721,0.98294 1.15353,-1.15335 2.07548,-1.59082 2.07548,-0.98294 0,1.9014 -10.164256,8.45885 -10.923554,7.04561 -0.396695,-0.73827 -0.16779,-3.33159 0.546177,-5.73479 0.525776,-1.76978 0.948249,-2.61221 1.201587,-2.51259 z m -41.509517,6.22661 c 8.3478,-0.2405 10.626227,1.65041 11.688208,9.61273 0.701903,5.26217 0.03478,7.86252 -2.894744,11.57897 -4.391008,5.57014 -8.098866,6.55151 -5.352543,1.41988 2.508695,-4.68733 2.261875,-16.75114 -0.382324,-18.89758 -1.201594,-0.97577 -3.757705,-2.20393 -5.68025,-2.67636 -2.12389,-0.52205 -1.095135,-0.93139 2.621653,-1.03764 z m 31.459846,0 c 0.791967,0 1.583916,0.13977 2.184712,0.38223 1.201591,0.48482 0.218471,0.87388 -2.184712,0.87388 -2.403182,0 -3.386303,-0.38906 -2.184712,-0.87388 0.600795,-0.24242 1.392763,-0.38223 2.184712,-0.38223 z m 34.791531,0 c 2.53427,0.002 4.98292,0.0853 6.77261,0.27299 3.57935,0.3756 0.20755,0.65542 -7.48265,0.65542 -7.69017,-0.007 -10.61032,-0.2861 -6.49951,-0.65542 2.05542,-0.18159 4.67529,-0.27613 7.20955,-0.27299 z m 68.32686,0 c 1.74232,0 3.4846,0.0726 4.80636,0.27299 2.64351,0.40042 0.48064,0.76465 -4.80636,0.76465 -5.287,0 -7.44987,-0.36423 -4.80637,-0.76465 1.32174,-0.20029 3.06404,-0.27299 4.80637,-0.27299 z m -103.17301,4.86088 c 1.277707,0.0382 2.998998,0.87863 5.352545,2.34866 2.763348,1.72558 4.173109,1.72558 6.936465,0 2.18904,-1.36745 10.23979,-2.18472 21.79249,-2.18472 l 18.29697,0 -4.31481,6.39021 c -2.97997,4.39126 -4.31481,8.75842 -4.31481,14.09138 l 0,7.7012 -23.59488,-0.54637 -23.59489,-0.54598 0,-13.54522 c -9.79e-4,-9.95633 0.62995,-13.79286 3.44092,-13.70916 z m -34.354589,0.70995 c 0.696663,0.0282 1.324163,0.76377 2.403184,2.23942 3.172375,4.33849 2.923091,7.18612 -1.310826,14.03686 -2.000952,3.23722 -4.36044,5.89873 -5.243308,5.89873 -2.951284,0 -1.849682,-16.99356 1.310826,-20.15406 1.377626,-1.37778 2.143465,-2.04855 2.840124,-2.02095 z m 20.427055,10.81449 0,8.30192 0,8.30189 -7.373402,0 c -7.295102,0 -7.319465,0.007 -3.331686,-2.78559 2.218794,-1.5541 5.536811,-5.28998 7.373403,-8.3019 l 3.331685,-5.51632 z m 5.243306,20.15389 c 3.030178,0.10475 4.900045,2.93607 3.440923,5.24331 -2.347693,3.71243 -2.113212,29.24408 0.273087,30.03968 1.231654,0.4106 0.953442,1.4687 -0.764648,2.8949 -2.410856,2.0004 -2.791538,0.056 -3.277068,-17.9693 -0.299673,-11.12508 -0.152931,-20.22607 0.327706,-20.20859 z m 14.309862,0.21847 c 8.027786,-0.32701 11.906676,3.33126 11.906676,11.19655 0,4.16847 -1.56032,7.69927 -5.18869,11.68837 -5.79333,6.3685 -6.561596,5.9202 -2.67627,-1.5293 4.74675,-9.1017 1.83203,-19.1793 -5.898721,-20.3725 -3.4638,-0.53481 -3.017909,-0.78458 1.857005,-0.98312 z m -2.894743,6.06266 c 0.631974,0.026 1.287285,0.31023 1.966239,0.87389 3.401127,2.82266 2.952191,8.10127 -1.256208,14.91057 -5.224921,8.4541 -7.433332,7.4467 -6.444899,-2.8401 0.798958,-8.31488 2.996322,-13.0583 5.734868,-12.94436 z"
       id="path3050"
       inkscape:connector-curvature="0" />
    <path
       style="fill:url(#radialGradient3877);fill-opacity:1;fill-rule:evenodd;stroke:#5efff6;stroke-width:0.72099999999999997;stroke-linecap:round;stroke-linejoin:round;stroke-miterlimit:4;stroke-opacity:0.56603771000000003;stroke-dasharray:none;stroke-dashoffset:0;filter:url(#filter3899)"
       d="m 145.81537,225.45015 c -2.96348,-1.61905 -7.14286,-6.79979 -7.14286,-8.85425 0,-2.94059 4.54723,-9.97426 9.29661,-14.38004 5.24011,-4.86098 6.70617,-7.02305 6.08637,-8.97586 -0.53829,-1.696 -3.36553,-2.93856 -6.68623,-2.93856 -4.86965,0 -7.98246,-3.90171 -7.98246,-10.00551 0,-4.09702 1.86022,-7.27094 8.53907,-14.56943 4.98924,-5.45213 5.78985,-6.6746 5.60507,-8.55854 -0.23486,-2.39453 -0.89609,-2.73585 -7.33671,-3.78712 -4.58469,-0.74833 -6.80743,-3.66569 -6.80743,-8.93478 0,-4.72953 1.34097,-7.03992 8.13536,-14.01658 8.72347,-8.95749 8.8179,-8.9987 21.32892,-9.30854 l 10.53572,-0.26092 -0.01,8.82786 c -0.0105,9.52142 -0.37721,12.04213 -1.75178,12.04213 -3.31525,0 -11.80989,8.74354 -11.80989,12.15592 0,3.08098 1.40144,3.69661 7.82042,3.4354 l 5.75436,-0.23417 -0.002,9.1541 c -9.3e-4,5.03475 -0.32141,9.75152 -0.71219,10.4817 -0.39078,0.73019 -2.64338,2.50176 -5.00577,3.93684 -6.6224,4.02289 -9.54015,8.78258 -6.78536,11.06886 0.58839,0.48831 3.64196,1.22744 6.78572,1.6425 l 5.71589,0.75465 0,6.07658 c 0,7.84373 -1.36823,10.72963 -7.9964,16.8663 -9.01677,8.34815 -19.40474,11.7525 -25.57503,8.38146 z"
       id="path3865"
       inkscape:connector-curvature="0"
       transform="translate(0,796.36218)" />
  </g>
</svg>
